<svg width="982" height="277" viewBox="0 0 982 277" fill="none" xmlns="http://www.w3.org/2000/svg">
<path d="M201.707 26.5774C201.707 13.6968 209.281 4.00323 221.934 0.691292C230.668 -1.59484 241.173 1.91436 247.907 9.36786C252.961 14.9626 254.613 20.1947 254.062 28.8548C253.537 37.0941 249.939 43.1382 242.406 48.4327C238.564 51.1331 236.393 51.7939 230.207 52.1425C221.013 52.6619 216.547 51.2876 210.438 46.0589C204.349 40.8488 201.707 34.9515 201.707 26.5774Z" fill="#FFCC00"/>
<path fill-rule="evenodd" clip-rule="evenodd" d="M0 110.488V214.675L48.4972 214.251C94.0386 213.852 97.5501 213.681 106.111 211.438C136.032 203.598 159.316 184.471 172.071 157.253C184.617 130.483 184.433 95.9431 171.598 68.1631C159.68 42.3702 136.183 21.0377 110.196 12.4159C93.7021 6.94386 86.4949 6.30273 41.5037 6.30273H0V110.488ZM427.433 110.417V214.532H448.805H470.176V110.417V6.30273H448.805H427.433V110.417ZM661.973 50.1404V79.7308H653.205H644.437V98.3618V116.993H653.205H661.973L661.99 145.213C662.002 166.14 662.421 175.196 663.614 180.254C667.235 195.609 674.049 204.584 686.917 210.943L695.278 215.075L711.639 215.474C724.583 215.79 728.197 215.562 728.944 214.38C729.465 213.559 729.898 205.121 729.908 195.627L729.924 178.365H722.962C714.539 178.365 709.668 175.628 706.36 169.036C704.411 165.148 704.128 162.033 703.801 140.83L703.435 116.993H707.911H712.388V98.3618V79.7308H708.004H703.62V50.1404V20.55H682.797H661.973V50.1404ZM91.9321 51.5673C110.879 58.212 123.306 71.0444 130.582 91.4848C133.773 100.447 134.592 121.329 132.157 131.675C127.349 152.112 112.232 167.645 91.5145 173.439C87.0265 174.694 78.7617 175.463 65.4849 175.862L46.0312 176.445V112.048V47.6493L64.9369 48.1907C81.6265 48.6674 84.7906 49.0642 91.9321 51.5673ZM330.987 79.6015C322.85 82.2274 318.52 84.5979 313.385 89.2359L309.067 93.1374V86.4336V79.7308H289.339H269.612V178.365V277H290.435H311.259V240.095V203.19L313.725 205.424C321.642 212.599 333.973 216.723 347.51 216.723C378.525 216.723 404.677 193.856 411.027 161.182C413.077 150.641 411.904 133.552 408.396 122.821C401.535 101.829 383.96 84.7294 363.999 79.6245C353.565 76.9559 339.216 76.946 330.987 79.6015ZM539.445 79.7549C527.56 82.8685 518.972 87.9054 509.61 97.2549C500.437 106.414 494.401 116.619 491.372 128.088C488.911 137.401 488.911 155.765 491.372 165.078C497.392 187.871 516.152 206.873 539.771 214.105C549.99 217.234 576.525 217.031 586.898 213.745C607.768 207.133 626.081 188.972 632.502 168.518C635.712 158.297 636.431 142.443 634.151 132.192C628.356 106.148 609.109 86.2516 583.33 79.6596C571.995 76.7597 550.698 76.8068 539.445 79.7549ZM736.762 79.3505C727.935 83.7014 723.238 93.6153 725.448 103.228C727.94 114.06 735.827 120.281 747.07 120.281C759.476 120.281 768.186 112.739 769.146 101.167C769.937 91.6261 766.442 84.7765 758.227 79.7681C753.627 76.9635 742.06 76.7389 736.762 79.3505ZM203.853 147.131V214.532H225.772H247.692V147.131V79.7308H225.772H203.853V147.131ZM783.627 147.131V214.532H804.451H825.275V147.131V79.7308H804.451H783.627V147.131ZM838.426 80.2371C838.426 80.5155 847.194 92.4755 857.911 106.814C868.627 121.152 879.267 135.465 881.554 138.62L885.714 144.355L871.032 164.375C862.957 175.385 851.578 190.865 845.744 198.774C839.911 206.684 835.138 213.474 835.138 213.864C835.138 214.254 845.847 214.442 858.935 214.279L882.731 213.984L886.049 209.052C887.874 206.339 893.604 197.653 898.781 189.749L908.194 175.377L920.712 194.919L933.229 214.46L957.614 214.495C971.026 214.515 982 214.207 982 213.81C982 213.415 980.095 210.579 977.766 207.509C973.334 201.667 962.191 186.549 942.47 159.622L930.75 143.616L954.142 112.496C967.009 95.3786 977.554 81.0043 977.576 80.5527C977.599 80.1012 967.038 79.7308 954.108 79.7308H930.6L922.213 92.0601C917.6 98.8418 912.767 106.235 911.472 108.49C910.177 110.747 908.862 112.596 908.549 112.6C908.236 112.606 903.067 105.211 897.061 96.1699L886.142 79.7308H862.284C849.163 79.7308 838.426 79.9588 838.426 80.2371ZM352.88 117.086C359.653 120 366.328 127.228 368.716 134.236C370.676 139.991 370.975 151.746 369.31 157.737C367.311 164.936 361.64 172.061 355.098 175.593C343.598 181.801 327.562 179.324 318.726 169.974C313.245 164.174 310.18 155.745 310.222 146.583C310.242 142.062 310.928 136.488 311.746 134.197C317.859 117.06 335.631 109.666 352.88 117.086ZM576.184 117.65C587.32 123.026 593.271 133.665 593.182 148.041C593.116 158.526 588.183 168.54 580.577 173.632C558.776 188.227 531.551 173.301 531.551 146.754C531.551 121.667 554.076 106.98 576.184 117.65Z" fill="#0D1117"/>
<path d="M785.556 9.55281C789.859 4.52573 793.871 2.17712 800.423 0.847748C802.94 0.338135 806.971 0.174838 809.382 0.486085C815.072 1.22146 823.761 5.92634 826.479 9.74459C836.679 24.0675 832.224 43.2113 817.054 50.2495C811.793 52.6901 800.507 53.0047 795.373 50.8544C779.171 44.0651 774.138 22.8915 785.556 9.55281Z" fill="#FFCC00"/>
</svg>
